<?xml version="1.0" encoding="UTF-8" standalone="no"?>
<svg
   width="120"
   height="120"
   fill="currentColor"
   class="qi-101-fill"
   viewBox="0 0 120 120"
   version="1.1"
   id="svg6"
   sodipodi:docname="app-icon.svg"
   inkscape:version="1.1.2 (0a00cf5339, 2022-02-04)"
   xmlns:inkscape="http://www.inkscape.org/namespaces/inkscape"
   xmlns:sodipodi="http://sodipodi.sourceforge.net/DTD/sodipodi-0.dtd"
   xmlns:xlink="http://www.w3.org/1999/xlink"
   xmlns="http://www.w3.org/2000/svg"
   xmlns:svg="http://www.w3.org/2000/svg">
  <defs
     id="defs10">
    <linearGradient
       inkscape:collect="always"
       id="linearGradient11222">
      <stop
         style="stop-color:#ef6587;stop-opacity:1"
         offset="0"
         id="stop11218" />
      <stop
         style="stop-color:#fd7468;stop-opacity:1"
         offset="1"
         id="stop11220" />
    </linearGradient>
    <linearGradient
       inkscape:collect="always"
       xlink:href="#linearGradient11222"
       id="linearGradient11224"
       x1="-0.00036605803"
       y1="8.0122385"
       x2="15.752773"
       y2="8.0122385"
       gradientUnits="userSpaceOnUse" />
    <linearGradient
       inkscape:collect="always"
       xlink:href="#linearGradient11222"
       id="linearGradient22636"
       gradientUnits="userSpaceOnUse"
       x1="-0.00036605803"
       y1="8.0122385"
       x2="15.752773"
       y2="8.0122385" />
    <linearGradient
       inkscape:collect="always"
       xlink:href="#linearGradient11222"
       id="linearGradient22638"
       gradientUnits="userSpaceOnUse"
       x1="-0.00036605803"
       y1="8.0122385"
       x2="15.752773"
       y2="8.0122385" />
    <filter
       style="color-interpolation-filters:sRGB"
       inkscape:label="Drop Shadow"
       id="filter23900"
       x="-0.12188047"
       y="-0.14450379"
       width="1.2691527"
       height="1.2646937">
      <feFlood
         flood-opacity="0.498039"
         flood-color="rgb(0,0,0)"
         result="flood"
         id="feFlood23890" />
      <feComposite
         in="flood"
         in2="SourceGraphic"
         operator="in"
         result="composite1"
         id="feComposite23892" />
      <feGaussianBlur
         in="composite1"
         stdDeviation="0.8"
         result="blur"
         id="feGaussianBlur23894" />
      <feOffset
         dx="0.4"
         dy="-0.388407"
         result="offset"
         id="feOffset23896" />
      <feComposite
         in="SourceGraphic"
         in2="offset"
         operator="over"
         result="composite2"
         id="feComposite23898" />
    </filter>
    <filter
       style="color-interpolation-filters:sRGB"
       inkscape:label="Drop Shadow"
       id="filter24411"
       x="-0.22703709"
       y="-0.26110657"
       width="1.4733641"
       height="1.5023133">
      <feFlood
         flood-opacity="0.498039"
         flood-color="rgb(0,0,0)"
         result="flood"
         id="feFlood24401" />
      <feComposite
         in="flood"
         in2="SourceGraphic"
         operator="in"
         result="composite1"
         id="feComposite24403" />
      <feGaussianBlur
         in="composite1"
         stdDeviation="1.70777"
         result="blur"
         id="feGaussianBlur24405" />
      <feOffset
         dx="0.4"
         dy="-0.388407"
         result="offset"
         id="feOffset24407" />
      <feComposite
         in="SourceGraphic"
         in2="offset"
         operator="over"
         result="composite2"
         id="feComposite24409" />
    </filter>
  </defs>
  <sodipodi:namedview
     id="namedview8"
     pagecolor="#ffffff"
     bordercolor="#666666"
     borderopacity="1.0"
     inkscape:pageshadow="2"
     inkscape:pageopacity="0.0"
     inkscape:pagecheckerboard="0"
     showgrid="false"
     inkscape:zoom="2"
     inkscape:cx="-10"
     inkscape:cy="60.75"
     inkscape:window-width="1368"
     inkscape:window-height="708"
     inkscape:window-x="0"
     inkscape:window-y="28"
     inkscape:window-maximized="1"
     inkscape:current-layer="svg6" />
  <rect
     style="opacity:0.79909;fill:#e6e6e6;fill-opacity:1;stroke:#ffffff;stroke-width:1.21848;filter:url(#filter24411)"
     id="rect23976"
     width="20.736206"
     height="19.518064"
     x="-2.4068615"
     y="-1.665499"
     ry="4.1213665"
     inkscape:export-filename="/home/rage/projects/ui/icon/app-icon.png"
     inkscape:export-xdpi="96"
     inkscape:export-ydpi="96"
     transform="matrix(3.8638929,0,0,3.8638929,28.951342,27.346435)" />
  <g
     id="g11216"
     style="fill:url(#linearGradient11224);fill-opacity:1;filter:url(#filter23900)"
     inkscape:export-filename="/home/rage/projects/ui/icon/app-icon.png"
     inkscape:export-xdpi="96"
     inkscape:export-ydpi="96"
     transform="matrix(3.8638929,0,0,3.8638929,28.951342,27.346435)">
    <path
       d="M 4.745,1.777 A 0.516,0.516 0 0 0 5.248,2.181 0.535,0.535 0 0 0 5.36,2.169 0.517,0.517 0 0 0 5.752,1.553 L 5.496,0.403 A 0.516,0.516 0 0 0 4.49,0.627 Z M 1.023,3.535 2.017,4.168 A 0.516,0.516 0 0 0 2.571,3.298 L 1.577,2.665 A 0.516,0.516 0 0 0 1.023,3.535 Z M 0.628,8.043 1.778,7.787 A 0.51618626,0.51618626 0 1 0 1.555,6.779 l -1.15,0.256 a 0.516,0.516 0 0 0 0.111,1.02 0.535,0.535 0 0 0 0.112,-0.012 z m 10.238,-2.28 a 0.535,0.535 0 0 0 0.112,-0.012 l 1.15,-0.256 A 0.51629449,0.51629449 0 1 0 11.904,4.487 l -1.15,0.256 a 0.516,0.516 0 0 0 0.112,1.02 z M 8.522,2.728 A 0.516,0.516 0 0 0 9.234,2.57 L 9.867,1.576 A 0.516,0.516 0 0 0 8.997,1.022 L 8.364,2.016 A 0.516,0.516 0 0 0 8.522,2.728 Z M 2.819,7.032 A 3.506,3.506 0 0 0 3.15,7.902 3.13,3.13 0 0 0 4.058,7.416 2.453,2.453 0 0 1 3.826,6.808 2.504,2.504 0 0 1 5.726,3.82 2.5,2.5 0 0 1 8.714,5.72 L 8.718,5.758 A 5.42,5.42 0 0 1 9.782,6.008 3.509,3.509 0 0 0 9.721,5.496 3.5354243,3.5354243 0 1 0 2.819,7.032 Z"
       id="path2"
       style="fill:url(#linearGradient22636);fill-opacity:1" />
    <path
       d="m 12.464,8.48 a 3.236,3.236 0 0 0 -0.409,0.04 4.824,4.824 0 0 0 -8.086,0 3.234,3.234 0 0 0 -0.41,-0.04 3.285,3.285 0 1 0 1.284,6.31 4.756,4.756 0 0 0 6.338,0 3.286,3.286 0 1 0 1.283,-6.31 z"
       id="path4"
       style="fill:url(#linearGradient22638);fill-opacity:1" />
  </g>
</svg>
